<?xml version="1.0" encoding="utf-8"?>
<!-- Generator: Adobe Illustrator 26.5.0, SVG Export Plug-In . SVG Version: 6.00 Build 0)  -->
<svg version="1.1" id="Layer_1" xmlns="http://www.w3.org/2000/svg" xmlns:xlink="http://www.w3.org/1999/xlink" x="0px" y="0px"
	 viewBox="0 0 78.2 78.2" style="enable-background:new 0 0 78.2 78.2;" xml:space="preserve">
<style type="text/css">
	.st0{fill:#572D2D;}
	.st1{fill:#AB2328;}
	.st2{fill:#FFFFFF;}
</style>
<g>
	<path class="st0" d="M74.3,26.2l-0.2-5.4c-1.8-1.2-3.7-2.1-5.6-2.7c-2-0.6-4-0.9-6.1-0.9c-5.4,0-9.8,1.6-13,4.9
		c-3.3,3.3-4.9,7.7-4.9,13.2c0,3.9,0.8,7.3,2.5,10.4c1.7,3,4,5.4,7.1,7.2c3.1,1.8,6.3,2.7,9.7,2.7c2.7,0,5.4-0.3,8-0.9
		c2-0.5,4-1.4,5.9-2.9l0.6,0.6c-0.4,0.9-0.8,1.9-1.2,2.8c-2.4,1.2-4.7,2-7.1,2.6c-2.4,0.6-4.8,0.9-7.2,0.9c-4.9,0-9.3-1-13-2.9
		c-3.8-1.9-6.6-4.5-8.6-7.9c-2-3.4-3-7.2-3-11.4s1-8,3-11.4c2-3.3,4.9-5.9,8.6-7.8c3.7-1.8,8.3-2.8,13.7-2.8c2.8,0,6.2,0.5,10,1.4
		c1.9,0.4,3.4,0.8,4.6,1c-0.9,2.2-1.4,5.2-1.6,9.1H74.3z"/>
	<g>
		<path class="st1" d="M48.1,16.1c-0.6,0.1-1.3,0.2-2.2,0.4c-1.1,0.3-4.9,1.3-9.7,4.7c-1,0.7-5,3.5-9,8.6
			c-4.2,5.3-6.3,10.2-7.4,12.9c-0.5,1.2-0.9,2.4-1.3,3.5l2.2,2.7l-3,0c-0.1,0.4-0.2,0.6-0.2,0.6c-0.4,1.5-0.7,2.9-0.8,3.9
			C16.3,56,16.2,58,16.2,58c0,0.8-0.1,1.4-0.2,2.6c-0.1,1.2-0.2,2.2-0.3,2.9c0,0,0,0,0,0c2.8-1.3,6.4-3.6,9.5-7.4
			c1.5-1.9,3.4-5.4,4.1-7c0.1-0.2,0.2-0.4,0.3-0.6l-4.9-1.5l6-1.4c0.7-1.8,1.4-3.9,1.9-5.5l-4.2,0.4l5-3.1c0.5-1.9,1.1-3.4,1.1-3.4
			c0.9-2.4,1.6-4.5,2.9-6.8c1.4-2.6,3.9-7,8.9-9.9C47,16.7,47.7,16.4,48.1,16.1C48.2,16.2,48.2,16.1,48.1,16.1z"/>
		<path class="st1" d="M43.2,16.1c-3.7-0.4-8.4-0.4-13.6,0.9c-2.6,0.6-10.1,2.9-16.9,8.7c-1.1,1-2.1,1.9-3,2.8l0.9,1.9L8.3,30
			c-0.7,0.8-1.4,1.7-2.1,2.6c0,0-3.5,4.4-6.2,6.9c0,0,0,0.1,0,0.1c1.4,0,3.3-0.1,5.4-0.6c0.5-0.1,2.8-0.6,5.6-1.9
			c3.1-1.4,5-2.9,6.8-4.3c0.3-0.2,0.6-0.4,0.9-0.7l-1.9-3.3l3.9,1.6c0.4-0.4,0.8-0.6,0.8-0.6c0.7-0.6,1.3-1.2,2.4-2.2
			c0,0,0.1-0.1,0.2-0.2L22.2,25l3.4,1.1c0.7-0.6,1.4-1.2,1.5-1.3c3.6-3.2,7.5-5.1,9-5.8C37.9,18.1,40.3,17,43.2,16.1
			C43.2,16.1,43.2,16.1,43.2,16.1z"/>
	</g>
	<path class="st2" d="M6.4,35.7c1.2-1.6,2.6-3.1,4.1-4.5c1.8-1.7,3.7-3.4,5.7-4.9c4-3.1,8.5-5.8,13.3-7.5c2-0.7,4.1-1.3,6.2-1.6
		c0.1,0,0.1,0.1,0,0.1c-4.5,1.2-8.7,3.3-12.7,5.8c-4,2.5-7.8,5.4-11.4,8.4c-1.1,0.9-2.1,1.8-3.2,2.7c-0.5,0.4-1,0.8-1.4,1.2
		C6.9,35.4,6.7,35.6,6.4,35.7C6.4,35.8,6.4,35.7,6.4,35.7z"/>
	<path class="st2" d="M39.8,20.4c-3.7,3.3-6.8,7.2-9.4,11.4c-3,4.8-5.4,10-7.3,15.3c-0.5,1.4-0.9,2.9-1.4,4.3
		c-0.2,0.6-0.5,1.3-0.8,1.9c-0.1,0.2-0.3,0.6-0.5,1c0,0-0.1,0-0.1,0c0.4-2.3,1-4.6,1.7-6.9c0.9-2.9,1.9-5.7,3.1-8.4
		c2.2-4.8,4.9-9.4,8.4-13.3C35.4,23.7,37.5,21.9,39.8,20.4C39.8,20.4,39.8,20.4,39.8,20.4z"/>
</g>
</svg>
